<?xml version="1.0" encoding="utf-8"?>
<!-- Generator: Adobe Illustrator 19.0.1, SVG Export Plug-In . SVG Version: 6.00 Build 0)  -->
<svg version="1.1"
	 xmlns="http://www.w3.org/2000/svg" xmlns:xlink="http://www.w3.org/1999/xlink" x="0px" y="0px" viewBox="-27 174.4 264 212.6"
	 style="enable-background:new -27 174.4 264 212.6;" xml:space="preserve">

	<path id="invader-1" d="M43.9,209.8v17.7h17.7v-17.7H43.9z M61.6,227.6v17.7H43.9V263H26.2v-17.7v-17.7H8.4v17.7V263v17.7v17.7h17.7
	v17.7h17.7v17.7h17.7v-17.7h17.7H97h17.7h17.7h17.7v17.7h17.7v-17.7h17.7v-17.7h17.7v-17.7V263v-17.7v-17.7h-17.7v17.7V263h-17.7
	v-17.7h-17.7v-17.7h-17.7v17.7h-17.7H97H79.3v-17.7H61.6z M150.2,227.6h17.7v-17.7h-17.7V227.6z M167.9,333.8v17.7h17.7v-17.7H167.9
	z M43.9,333.8H26.2v17.7h17.7V333.8z M61.6,263h17.7v17.7H61.6V263z M132.4,263h17.7v17.7h-17.7V263z"/>
</svg>