<?xml version="1.0" encoding="utf-8"?>
<!-- Generator: Adobe Illustrator 19.0.1, SVG Export Plug-In . SVG Version: 6.00 Build 0)  -->
<svg version="1.1"
	 id="space-invaders" xmlns:rdf="http://www.w3.org/1999/02/22-rdf-syntax-ns#" xmlns:dc="http://purl.org/dc/elements/1.1/" xmlns:cc="http://creativecommons.org/ns#" xmlns:svg="http://www.w3.org/2000/svg"
	 xmlns="http://www.w3.org/2000/svg" xmlns:xlink="http://www.w3.org/1999/xlink" x="0px" y="0px" viewBox="-27 174.4 264 212.6"
	 style="enable-background:new -27 174.4 264 212.6;" xml:space="preserve">
<path id="invader-2" d="M43,209.8v17.7h17.7v-17.7H43z M60.7,227.6v17.7H43V263H25.3v17.7H7.6v17.7v17.7v17.7h17.7v-17.7v-17.7H43
	v17.7v17.7h17.7v-17.7h17.7h17.7h17.7h17.7h17.7v17.7H167v-17.7v-17.7h17.7v17.7v17.7h17.7v-17.7v-17.7v-17.7h-17.7V263H167v-17.7
	h-17.7v-17.7h-17.7v17.7h-17.7H96.2H78.4v-17.7H60.7z M149.3,227.6H167v-17.7h-17.7V227.6z M149.3,333.8h-17.7h-17.7v17.7h17.7h17.7
	V333.8z M60.7,333.8v17.7h17.7h17.7v-17.7H78.4H60.7z M60.7,263h17.7v17.7H60.7V263z M131.6,263h17.7v17.7h-17.7V263z"/>
</svg>
